# xmcd CD database file
#
# Track frame offsets:
#	150
#	17532
#	27983
#	40011
#	52777
#	65729
#	84603
#	102399
#	112967
#	126771
#	141890
#	151751
#	163303
#	180335
#	195032
#	202843
#	206568
#	212589
#	219075
#	230922
#
# Disc length: 3280 seconds
#
# Revision: 0
# Processed by: cddbd v1.5.1PL2 Copyright (c) Steve Scherf et al.
# Submitted via: CDex 1.51
#
DISCID=060cce14
DTITLE=BBC Big Band - Strict Tempo
DYEAR=1900
DGENRE=Jazz
TTITLE0=Woodchopper's Ball
TTITLE1=I Left My Heart In San Francisco
TTITLE2=Tenderly
TTITLE3=In The Mood
TTITLE4=Lujon (Slow Hot Wind)
TTITLE5=Sing Sing Sing
TTITLE6=Blue Tango
TTITLE7=I've Never Been In Love Before
TTITLE8=Charmaine
TTITLE9=Tuxedo Junction
TTITLE10=Wheels Cha Cha
TTITLE11=It's Alright With Me
TTITLE12=Guantanamera
TTITLE13=American Patrol
TTITLE14=Skye Boat Song
TTITLE15=Cailine Mo Ruim Sa
TTITLE16=Eriskay Love Tilt
TTITLE17=Coming Through The Rye
TTITLE18=Adios Cha Cha
TTITLE19=Last Waltz
EXTD=
EXTT0=
EXTT1=
EXTT2=
EXTT3=
EXTT4=
EXTT5=
EXTT6=
EXTT7=
EXTT8=
EXTT9=
EXTT10=
EXTT11=
EXTT12=
EXTT13=
EXTT14=
EXTT15=
EXTT16=
EXTT17=
EXTT18=
EXTT19=
PLAYORDER=
